<?xml version="1.0" encoding="UTF-8"?>
<svg xmlns="http://www.w3.org/2000/svg" width="1e3" height="1e3">
  <style>path {fill: #313131} @media (prefers-color-scheme: dark) {path {fill:#f6f5f4}}</style>
  <rect width="1e3" height="1e3" ry="150" fill="#33d17a"/>
  <path d="m500 78.2c-193 0-350 161-350 361 0 150 88.9 279 215 333v-29.1c0-45.6-11-71.4-24.7-86.2-13.7-14.8-31.2-20.3-49.3-21.2-32.5-1.73-57.6-21.8-72.8-48-11.5-19.9-10.6-44.1-0.946-65.8 9.68-21.7 27.6-42.2 51.9-60.3 48.7-36.3 124-63.2 218-63.2 93.7 0 175 27.8 230 64.4 27.5 18.3 48.5 38.7 60.9 60.4 12.4 21.7 15.9 47 3.89 67.8-7.45 12.9-19.6 21.3-33.2 28.3-13.6 7.03-28.6 12.1-43.7 12.1-21.1 0-36.7 3.94-48.8 18.1-12.1 14.1-22.1 42-22.1 93.7v29.2c127-54.2 216-183 216-333 0-200-157-361-350-361zm-136 154c2.72 0.0356 5.42 0.139 8.11 0.279 25.8 1.36 50.3 7.65 73 17.7l30.8 13.7-179 97.7-15.9-29.2 116-63.3c-43-9.81-90.6-3.34-146 31.2l-17.6-28.2c45.8-28.6 89.9-40.5 131-40zm267 0c40.8-0.498 84.9 11.4 131 40l-17.6 28.2c-55.4-34.5-103-41-146-31.2l116 63.2-15.9 29.2-179-97.7 30.8-13.7c22.7-10.1 47.1-16.4 73-17.7 2.69-0.139 5.4-0.242 8.12-0.276zm-131 303c-123 0-201 27.3-208 67.4l0.889 0.0534c24 1.27 51.3 9.44 72 31.9 20.7 22.5 33.5 57.7 33.5 109v178h202v-178c0-55.8 10.3-92.2 30.1-115 19.9-23.2 48-29.7 74-29.7 0.626 0 1.35-0.0534 2.06-0.107-11.4-40.2-88.7-63-207-63z"/>
</svg>

